<?xml version="1.0" encoding="UTF-8"?>
<svg version="1.1" xmlns="http://www.w3.org/2000/svg" width="1536" height="864">
<path d="M0 0 C506.88 0 1013.76 0 1536 0 C1536 285.12 1536 570.24 1536 864 C1029.12 864 522.24 864 0 864 C0 578.88 0 293.76 0 0 Z " fill="#FEFEFE" transform="translate(0,0)"/>
<path d="M0 0 C2.31 0 4.62 0 7 0 C7 0.66 7 1.32 7 2 C7.66 2 8.32 2 9 2 C9 3.32 9 4.64 9 6 C9.66 6 10.32 6 11 6 C11 7.32 11 8.64 11 10 C11.66 10 12.32 10 13 10 C13 11.32 13 12.64 13 14 C13.66 14 14.32 14 15 14 C15 14.66 15 15.32 15 16 C15.66 16 16.32 16 17 16 C17.495 19.96 17.495 19.96 18 24 C18.66 24 19.32 24 20 24 C20 24.66 20 25.32 20 26 C20.66 26 21.32 26 22 26 C22 27.65 22 29.3 22 31 C22.66 31 23.32 31 24 31 C24 32.32 24 33.64 24 35 C24.66 35 25.32 35 26 35 C26 36.32 26 37.64 26 39 C26.66 39 27.32 39 28 39 C28 40.32 28 41.64 28 43 C28.66 43 29.32 43 30 43 C30 43.66 30 44.32 30 45 C30.66 45 31.32 45 32 45 C32 46.32 32 47.64 32 49 C32.66 49 33.32 49 34 49 C34.495 51.97 34.495 51.97 35 55 C35.66 55 36.32 55 37 55 C37 56.98 37 58.96 37 61 C37.66 61 38.32 61 39 61 C39 61.66 39 62.32 39 63 C39.66 63 40.32 63 41 63 C41 63.66 41 64.32 41 65 C41.66 65 42.32 65 43 65 C43 66.98 43 68.96 43 71 C43.66 71 44.32 71 45 71 C45 72.32 45 73.64 45 75 C45.66 75 46.32 75 47 75 C47 75.66 47 76.32 47 77 C47.66 77 48.32 77 49 77 C50.33224462 80.99673385 50.13442113 84.83294503 50 89 C49.67 89.66 49.34 90.32 49 91 C17.98 91 -13.04 91 -45 91 C-45 85.80942241 -44.980503 81.90251498 -44 77 C-43.34 77 -42.68 77 -42 77 C-42 76.34 -42 75.68 -42 75 C-41.34 75 -40.68 75 -40 75 C-40 73.68 -40 72.36 -40 71 C-39.34 71 -38.68 71 -38 71 C-38 69.68 -38 68.36 -38 67 C-37.34 67 -36.68 67 -36 67 C-36 66.34 -36 65.68 -36 65 C-35.34 65 -34.68 65 -34 65 C-34 63.68 -34 62.36 -34 61 C-33.34 61 -32.68 61 -32 61 C-32 59.02 -32 57.04 -32 55 C-31.34 55 -30.68 55 -30 55 C-29.505 52.03 -29.505 52.03 -29 49 C-28.34 49 -27.68 49 -27 49 C-27 48.34 -27 47.68 -27 47 C-26.34 47 -25.68 47 -25 47 C-25 46.34 -25 45.68 -25 45 C-24.34 45 -23.68 45 -23 45 C-23 43.02 -23 41.04 -23 39 C-22.34 39 -21.68 39 -21 39 C-21 38.34 -21 37.68 -21 37 C-20.34 37 -19.68 37 -19 37 C-19 35.02 -19 33.04 -19 31 C-18.34 31 -17.68 31 -17 31 C-17 29.35 -17 27.7 -17 26 C-15.68 26 -14.36 26 -13 26 C-13 24.02 -13 22.04 -13 20 C-12.01 20 -11.02 20 -10 20 C-10 18.02 -10 16.04 -10 14 C-9.34 14 -8.68 14 -8 14 C-8 12.68 -8 11.36 -8 10 C-7.34 10 -6.68 10 -6 10 C-6 9.34 -6 8.68 -6 8 C-5.34 8 -4.68 8 -4 8 C-4 6.68 -4 5.36 -4 4 C-2.68 4 -1.36 4 0 4 C0 2.68 0 1.36 0 0 Z " fill="#DCDDDD" transform="translate(679,233)"/>
<path d="M0 0 C4.95 0 9.9 0 15 0 C15 0.66 15 1.32 15 2 C16.98 2 18.96 2 21 2 C21 2.66 21 3.32 21 4 C22.32 4 23.64 4 25 4 C25.495 5.98 25.495 5.98 26 8 C27.32 8 28.64 8 30 8 C30 8.66 30 9.32 30 10 C30.66 10 31.32 10 32 10 C32 10.99 32 11.98 32 13 C32.66 13 33.32 13 34 13 C34 14.32 34 15.64 34 17 C34.66 17 35.32 17 36 17 C36 17.66 36 18.32 36 19 C36.66 19 37.32 19 38 19 C38 20.32 38 21.64 38 23 C38.66 23 39.32 23 40 23 C40.9668747 26.24819971 41.12888665 29.18790836 41.1328125 32.5703125 C41.13410156 33.63121094 41.13539062 34.69210937 41.13671875 35.78515625 C41.13285156 36.88730469 41.12898438 37.98945313 41.125 39.125 C41.12886719 40.23488281 41.13273437 41.34476562 41.13671875 42.48828125 C41.13542969 43.54660156 41.13414063 44.60492188 41.1328125 45.6953125 C41.13168457 46.66484863 41.13055664 47.63438477 41.12939453 48.63330078 C41 51 41 51 40 53 C39.34 53 38.68 53 38 53 C38 54.98 38 56.96 38 59 C37.34 59 36.68 59 36 59 C36 60.32 36 61.64 36 63 C35.34 63 34.68 63 34 63 C34 63.66 34 64.32 34 65 C33.34 65 32.68 65 32 65 C32 65.66 32 66.32 32 67 C31.34 67 30.68 67 30 67 C30 67.66 30 68.32 30 69 C29.34 69 28.68 69 28 69 C28 69.66 28 70.32 28 71 C27.01 71 26.02 71 25 71 C25 71.66 25 72.32 25 73 C24.34 73 23.68 73 23 73 C23 73.66 23 74.32 23 75 C21.68 75 20.36 75 19 75 C19 75.66 19 76.32 19 77 C16.36 77 13.72 77 11 77 C11 77.66 11 78.32 11 79 C6.71 79 2.42 79 -2 79 C-2 78.34 -2 77.68 -2 77 C-3.65 77 -5.3 77 -7 77 C-7 76.34 -7 75.68 -7 75 C-8.32 75 -9.64 75 -11 75 C-11 74.34 -11 73.68 -11 73 C-12.32 73 -13.64 73 -15 73 C-15 72.34 -15 71.68 -15 71 C-16.32 71 -17.64 71 -19 71 C-19 70.34 -19 69.68 -19 69 C-19.66 69 -20.32 69 -21 69 C-21.33 67.68 -21.66 66.36 -22 65 C-22.66 65 -23.32 65 -24 65 C-24 63.68 -24 62.36 -24 61 C-24.66 61 -25.32 61 -26 61 C-26 59.02 -26 57.04 -26 55 C-26.66 55 -27.32 55 -28 55 C-28 54.34 -28 53.68 -28 53 C-28.66 53 -29.32 53 -30 53 C-30 44.42 -30 35.84 -30 27 C-28.68 27 -27.36 27 -26 27 C-26 25.02 -26 23.04 -26 21 C-25.34 21 -24.68 21 -24 21 C-24 19.68 -24 18.36 -24 17 C-23.01 17 -22.02 17 -21 17 C-21 15.68 -21 14.36 -21 13 C-20.34 13 -19.68 13 -19 13 C-19 11.35 -19 9.7 -19 8 C-17.68 8 -16.36 8 -15 8 C-15 7.34 -15 6.68 -15 6 C-13.68 6 -12.36 6 -11 6 C-11 5.34 -11 4.68 -11 4 C-9.68 4 -8.36 4 -7 4 C-7 3.34 -7 2.68 -7 2 C-4.69 2 -2.38 2 0 2 C0 1.34 0 0.68 0 0 Z " fill="#DCDDDD" transform="translate(1158,251)"/>
<path d="M0 0 C4.95 0 9.9 0 15 0 C15 0.66 15 1.32 15 2 C15.66 2 16.32 2 17 2 C17 4.97 17 7.94 17 11 C17.66 11 18.32 11 19 11 C19 14.96 19 18.92 19 23 C19.66 23 20.32 23 21 23 C21.95261487 27.76307437 22.08333357 32.1666528 22 37 C22.66 37 23.32 37 24 37 C24 40.3 24 43.6 24 47 C24.66 47 25.32 47 26 47 C26 48.98 26 50.96 26 53 C26.66 53 27.32 53 28 53 C28 51.68 28 50.36 28 49 C28.66 49 29.32 49 30 49 C30 47.68 30 46.36 30 45 C31.32 45 32.64 45 34 45 C34 41.7 34 38.4 34 35 C34.66 35 35.32 35 36 35 C35.97679687 34.38511719 35.95359375 33.77023437 35.9296875 33.13671875 C35.91164063 32.32847656 35.89359375 31.52023437 35.875 30.6875 C35.85179687 29.88699219 35.82859375 29.08648437 35.8046875 28.26171875 C36 26 36 26 38 23 C38.45139459 20.9507906 38.45139459 20.9507906 38.625 18.8125 C38.810625 16.9253125 38.810625 16.9253125 39 15 C39.66 15 40.32 15 41 15 C41 10.05 41 5.1 41 0 C47.93 0 54.86 0 62 0 C62 3.63 62 7.26 62 11 C62.66 11 63.32 11 64 11 C64 13.64 64 16.28 64 19 C64.66 19 65.32 19 66 19 C66 20.32 66 21.64 66 23 C66.66 23 67.32 23 68 23 C68.495 30.92 68.495 30.92 69 39 C69.66 39 70.32 39 71 39 C71 41.64 71 44.28 71 47 C71.66 47 72.32 47 73 47 C73 49.64 73 52.28 73 55 C73.66 55 74.32 55 75 55 C75 52.36 75 49.72 75 47 C76.32 47 77.64 47 79 47 C79 45.68 79 44.36 79 43 C79.66 43 80.32 43 81 43 C81 38.38 81 33.76 81 29 C82.32 29 83.64 29 85 29 C84.98839844 28.07058594 84.97679687 27.14117187 84.96484375 26.18359375 C84.87521968 13.90509666 84.87521968 13.90509666 86 8 C86.66 8 87.32 8 88 8 C88 5.36 88 2.72 88 0 C92.95 0 97.9 0 103 0 C103 1.32 103 2.64 103 4 C102.34 4 101.68 4 101 4 C100.67 9.61 100.34 15.22 100 21 C99.34 21 98.68 21 98 21 C98 22.32 98 23.64 98 25 C97.34 25 96.68 25 96 25 C96 26.98 96 28.96 96 31 C95.34 31 94.68 31 94 31 C94 34.3 94 37.6 94 41 C93.34 41 92.68 41 92 41 C92 42.32 92 43.64 92 45 C91.34 45 90.68 45 90 45 C90 48.3 90 51.6 90 55 C89.34 55 88.68 55 88 55 C88 56.32 88 57.64 88 59 C87.34 59 86.68 59 86 59 C86.01160156 59.65226562 86.02320313 60.30453125 86.03515625 60.9765625 C86.04417969 61.85054688 86.05320312 62.72453125 86.0625 63.625 C86.07410156 64.48351562 86.08570313 65.34203125 86.09765625 66.2265625 C86 69 86 69 85 75 C78.73 75 72.46 75 66 75 C66 74.34 66 73.68 66 73 C65.34 73 64.68 73 64 73 C63.67 69.37 63.34 65.74 63 62 C62.01 61.67 61.02 61.34 60 61 C60 57.04 60 53.08 60 49 C59.34 49 58.68 49 58 49 C58 47.68 58 46.36 58 45 C57.34 45 56.68 45 56 45 C56 39.72 56 34.44 56 29 C55.01 29 54.02 29 53 29 C53 28.34 53 27.68 53 27 C51.68 27 50.36 27 49 27 C49 28.98 49 30.96 49 33 C48.34 33 47.68 33 47 33 C47 34.98 47 36.96 47 39 C46.34 39 45.68 39 45 39 C45 41.64 45 44.28 45 47 C44.34 47 43.68 47 43 47 C43 50.3 43 53.6 43 57 C42.34 57 41.68 57 41 57 C41 59.64 41 62.28 41 65 C40.34 65 39.68 65 39 65 C38.67 68.3 38.34 71.6 38 75 C31.73 75 25.46 75 19 75 C19 71.7 19 68.4 19 65 C17.68 65 16.36 65 15 65 C15 62.36 15 59.72 15 57 C14.34 57 13.68 57 13 57 C10.71937172 53.57905758 10.78074993 52.31812778 10.875 48.3125 C10.89304687 47.31863281 10.91109375 46.32476562 10.9296875 45.30078125 C10.95289063 44.54152344 10.97609375 43.78226562 11 43 C10.34 43 9.68 43 9 43 C8.92652344 41.86111328 8.92652344 41.86111328 8.8515625 40.69921875 C8.77679687 39.70535156 8.70203125 38.71148437 8.625 37.6875 C8.55539062 36.70136719 8.48578125 35.71523438 8.4140625 34.69921875 C8.16134528 31.78471567 8.16134528 31.78471567 6 29 C5.8046875 26.51953125 5.8046875 26.51953125 5.875 23.8125 C5.89304687 22.91144531 5.91109375 22.01039063 5.9296875 21.08203125 C5.95289063 20.39496094 5.97609375 19.70789063 6 19 C4.68 19 3.36 19 2 19 C2 17.02 2 15.04 2 13 C1.34 13 0.68 13 0 13 C0 8.71 0 4.42 0 0 Z " fill="#DCDDDD" transform="translate(1224,253)"/>
<path d="M0 0 C5.61 0 11.22 0 17 0 C17 0.66 17 1.32 17 2 C18.65 2 20.3 2 22 2 C22 2.66 22 3.32 22 4 C23.98 4 25.96 4 28 4 C28 4.66 28 5.32 28 6 C28.66 6 29.32 6 30 6 C30 6.66 30 7.32 30 8 C30.66 8 31.32 8 32 8 C32 8.66 32 9.32 32 10 C32.66 10 33.32 10 34 10 C34 10.99 34 11.98 34 13 C34.66 13 35.32 13 36 13 C36 13.66 36 14.32 36 15 C36.66 15 37.32 15 38 15 C38.495 18.96 38.495 18.96 39 23 C39.66 23 40.32 23 41 23 C41 26.3 41 29.6 41 33 C41.66 33 42.32 33 43 33 C43 36.96 43 40.92 43 45 C25.84 45 8.68 45 -9 45 C-8.67 48.96 -8.34 52.92 -8 57 C-7.34 57 -6.68 57 -6 57 C-6 57.66 -6 58.32 -6 59 C-4.68 59 -3.36 59 -2 59 C-2 59.66 -2 60.32 -2 61 C-0.68 61 0.64 61 2 61 C2 61.66 2 62.32 2 63 C7.61 63 13.22 63 19 63 C19 61.68 19 60.36 19 59 C19.66 59 20.32 59 21 59 C21 57.68 21 56.36 21 55 C26.94 55 32.88 55 39 55 C38.67 57.64 38.34 60.28 38 63 C37.34 63 36.68 63 36 63 C36 63.66 36 64.32 36 65 C35.34 65 34.68 65 34 65 C34 65.66 34 66.32 34 67 C33.34 67 32.68 67 32 67 C32 67.66 32 68.32 32 69 C31.34 69 30.68 69 30 69 C30 69.66 30 70.32 30 71 C29.34 71 28.68 71 28 71 C28 71.66 28 72.32 28 73 C26.68 73 25.36 73 24 73 C24 73.66 24 74.32 24 75 C23.01 75 22.02 75 21 75 C21 75.66 21 76.32 21 77 C19.02 77 17.04 77 15 77 C15 77.66 15 78.32 15 79 C10.05 79 5.1 79 0 79 C0 78.34 0 77.68 0 77 C-1.98 77 -3.96 77 -6 77 C-6 76.34 -6 75.68 -6 75 C-6.99 75 -7.98 75 -9 75 C-9 74.34 -9 73.68 -9 73 C-10.32 73 -11.64 73 -13 73 C-13 72.34 -13 71.68 -13 71 C-13.66 71 -14.32 71 -15 71 C-15 70.34 -15 69.68 -15 69 C-15.66 69 -16.32 69 -17 69 C-17 67.68 -17 66.36 -17 65 C-18.32 65 -19.64 65 -21 65 C-21 63.02 -21 61.04 -21 59 C-22.32 59 -23.64 59 -25 59 C-25.84984768 51.8953508 -26.15447356 44.90225049 -26.125 37.75 C-26.12886719 36.79609375 -26.13273437 35.8421875 -26.13671875 34.859375 C-26.13014538 30.12655165 -25.98377794 25.65342581 -25 21 C-23.68 21 -22.36 21 -21 21 C-21 19.68 -21 18.36 -21 17 C-20.34 17 -19.68 17 -19 17 C-19 14.69 -19 12.38 -19 10 C-17.68 10 -16.36 10 -15 10 C-15 9.34 -15 8.68 -15 8 C-13.68 8 -12.36 8 -11 8 C-11 7.34 -11 6.68 -11 6 C-10.34 6 -9.68 6 -9 6 C-9 5.34 -9 4.68 -9 4 C-8.01 4 -7.02 4 -6 4 C-6 3.34 -6 2.68 -6 2 C-4.02 2 -2.04 2 0 2 C0 1.34 0 0.68 0 0 Z " fill="#DCDDDD" transform="translate(534,251)"/>
<path d="M0 0 C3.96 0 7.92 0 12 0 C12 0.66 12 1.32 12 2 C14.97 2 17.94 2 21 2 C21 2.66 21 3.32 21 4 C22.32 4 23.64 4 25 4 C25 4.66 25 5.32 25 6 C25.66 6 26.32 6 27 6 C27 6.66 27 7.32 27 8 C28.32 8 29.64 8 31 8 C31.495 11.465 31.495 11.465 32 15 C32.66 15 33.32 15 34 15 C34 15.66 34 16.32 34 17 C34.66 17 35.32 17 36 17 C36 18.32 36 19.64 36 21 C36.66 21 37.32 21 38 21 C38 22.98 38 24.96 38 27 C38.66 27 39.32 27 40 27 C40 32.94 40 38.88 40 45 C22.51 45 5.02 45 -13 45 C-13 46.98 -13 48.96 -13 51 C-12.34 51 -11.68 51 -11 51 C-11 51.66 -11 52.32 -11 53 C-10.34 53 -9.68 53 -9 53 C-9 54.32 -9 55.64 -9 57 C-8.34 57 -7.68 57 -7 57 C-7 58.32 -7 59.64 -7 61 C-5.68 61 -4.36 61 -3 61 C-3 61.66 -3 62.32 -3 63 C2.94 63 8.88 63 15 63 C15 62.34 15 61.68 15 61 C15.66 61 16.32 61 17 61 C17 59.68 17 58.36 17 57 C18.32 57 19.64 57 21 57 C21 56.34 21 55.68 21 55 C25.95 55 30.9 55 36 55 C36 56.32 36 57.64 36 59 C35.34 59 34.68 59 34 59 C34 60.32 34 61.64 34 63 C33.34 63 32.68 63 32 63 C31.505 64.98 31.505 64.98 31 67 C30.34 67 29.68 67 29 67 C29 67.66 29 68.32 29 69 C28.34 69 27.68 69 27 69 C27 69.66 27 70.32 27 71 C26.34 71 25.68 71 25 71 C25 71.66 25 72.32 25 73 C24.34 73 23.68 73 23 73 C23 73.66 23 74.32 23 75 C21.68 75 20.36 75 19 75 C19 75.66 19 76.32 19 77 C16.69 77 14.38 77 12 77 C12 77.66 12 78.32 12 79 C7.05 79 2.1 79 -3 79 C-3 78.67 -3 78.34 -3 78 C-4.98 77.67 -6.96 77.34 -9 77 C-9 76.34 -9 75.68 -9 75 C-10.32 75 -11.64 75 -13 75 C-13 74.34 -13 73.68 -13 73 C-13.66 73 -14.32 73 -15 73 C-15 72.34 -15 71.68 -15 71 C-15.99 71 -16.98 71 -18 71 C-18 69.68 -18 68.36 -18 67 C-18.66 67 -19.32 67 -20 67 C-20 66.34 -20 65.68 -20 65 C-20.66 65 -21.32 65 -22 65 C-22 64.34 -22 63.68 -22 63 C-22.66 63 -23.32 63 -24 63 C-24 62.34 -24 61.68 -24 61 C-24.66 61 -25.32 61 -26 61 C-26 59.68 -26 58.36 -26 57 C-26.66 57 -27.32 57 -28 57 C-28 52.38 -28 47.76 -28 43 C-28.66 43 -29.32 43 -30 43 C-30 39.04 -30 35.08 -30 31 C-29.34 31 -28.68 31 -28 31 C-28 27.7 -28 24.4 -28 21 C-26.68 21 -25.36 21 -24 21 C-24 19.68 -24 18.36 -24 17 C-23.34 17 -22.68 17 -22 17 C-22 15.68 -22 14.36 -22 13 C-21.34 13 -20.68 13 -20 13 C-20 12.01 -20 11.02 -20 10 C-19.34 10 -18.68 10 -18 10 C-18 9.34 -18 8.68 -18 8 C-17.01 8 -16.02 8 -15 8 C-15 7.34 -15 6.68 -15 6 C-14.34 6 -13.68 6 -13 6 C-13 5.34 -13 4.68 -13 4 C-11.68 4 -10.36 4 -9 4 C-9 3.34 -9 2.68 -9 2 C-6.03 2 -3.06 2 0 2 C0 1.34 0 0.68 0 0 Z " fill="#DCDDDD" transform="translate(447,251)"/>
<path d="M0 0 C4.95 0 9.9 0 15 0 C15 0.66 15 1.32 15 2 C16.98 2 18.96 2 21 2 C21 2.66 21 3.32 21 4 C21.99 4 22.98 4 24 4 C24 4.66 24 5.32 24 6 C25.32 6 26.64 6 28 6 C28 6.66 28 7.32 28 8 C28.66 8 29.32 8 30 8 C30 8.66 30 9.32 30 10 C30.66 10 31.32 10 32 10 C32 10.99 32 11.98 32 13 C32.66 13 33.32 13 34 13 C34 13.66 34 14.32 34 15 C34.66 15 35.32 15 36 15 C36 16.32 36 17.64 36 19 C36.66 19 37.32 19 38 19 C39.42584467 27.55506804 39 36.32692545 39 45 C22.5 45 6 45 -11 45 C-11 47.64 -11 50.28 -11 53 C-10.34 53 -9.68 53 -9 53 C-8.67 54.98 -8.34 56.96 -8 59 C-6.68 59 -5.36 59 -4 59 C-4 59.66 -4 60.32 -4 61 C-2.68 61 -1.36 61 0 61 C0 61.66 0 62.32 0 63 C4.95 63 9.9 63 15 63 C15 62.34 15 61.68 15 61 C16.32 61 17.64 61 19 61 C19 59.02 19 57.04 19 55 C21.31 55 23.62 55 26 55 C26 54.34 26 53.68 26 53 C29.96 53 33.92 53 38 53 C38 54.98 38 56.96 38 59 C37.34 59 36.68 59 36 59 C36 59.66 36 60.32 36 61 C35.34 61 34.68 61 34 61 C34 62.32 34 63.64 34 65 C33.34 65 32.68 65 32 65 C32 65.66 32 66.32 32 67 C31.34 67 30.68 67 30 67 C30 67.66 30 68.32 30 69 C29.34 69 28.68 69 28 69 C28 69.66 28 70.32 28 71 C27.34 71 26.68 71 26 71 C26 71.66 26 72.32 26 73 C24.68 73 23.36 73 22 73 C22 73.66 22 74.32 22 75 C21.01 75 20.02 75 19 75 C19 75.66 19 76.32 19 77 C17.02 77 15.04 77 13 77 C13 77.66 13 78.32 13 79 C8.05 79 3.1 79 -2 79 C-2 78.34 -2 77.68 -2 77 C-3.98 77 -5.96 77 -8 77 C-8 76.34 -8 75.68 -8 75 C-8.99 75 -9.98 75 -11 75 C-11 74.34 -11 73.68 -11 73 C-12.32 73 -13.64 73 -15 73 C-15 72.34 -15 71.68 -15 71 C-15.66 71 -16.32 71 -17 71 C-17 70.34 -17 69.68 -17 69 C-18.32 69 -19.64 69 -21 69 C-21 67.68 -21 66.36 -21 65 C-21.66 65 -22.32 65 -23 65 C-23 64.34 -23 63.68 -23 63 C-23.66 63 -24.32 63 -25 63 C-25.90627859 58.37050936 -26.14652802 53.88926107 -26.1328125 49.1875 C-26.13376923 48.4555542 -26.13472595 47.7236084 -26.13571167 46.96948242 C-26.13638882 45.42984938 -26.13456714 43.89021341 -26.13037109 42.35058594 C-26.12501621 40.00709562 -26.1303319 37.66379693 -26.13671875 35.3203125 C-26.13605789 33.81770791 -26.13477655 32.31510345 -26.1328125 30.8125 C-26.13483673 30.11858154 -26.13686096 29.42466309 -26.13894653 28.7097168 C-26.1198429 24.70442355 -25.76940322 20.9302981 -25 17 C-23.68 17 -22.36 17 -21 17 C-21 15.68 -21 14.36 -21 13 C-20.34 13 -19.68 13 -19 13 C-19 11.35 -19 9.7 -19 8 C-17.68 8 -16.36 8 -15 8 C-15 7.34 -15 6.68 -15 6 C-13.68 6 -12.36 6 -11 6 C-11 5.34 -11 4.68 -11 4 C-9.35 4 -7.7 4 -6 4 C-6 3.34 -6 2.68 -6 2 C-4.02 2 -2.04 2 0 2 C0 1.34 0 0.68 0 0 Z " fill="#DCDDDD" transform="translate(957,251)"/>
<path d="M0 0 C3.63 0 7.26 0 11 0 C11 0.66 11 1.32 11 2 C13.64 2 16.28 2 19 2 C19 2.66 19 3.32 19 4 C20.32 4 21.64 4 23 4 C23 4.66 23 5.32 23 6 C23.66 6 24.32 6 25 6 C25.495 7.98 25.495 7.98 26 10 C26.66 10 27.32 10 28 10 C28 10.99 28 11.98 28 13 C28.66 13 29.32 13 30 13 C30 14.32 30 15.64 30 17 C30.66 17 31.32 17 32 17 C32 19.64 32 22.28 32 25 C32.66 25 33.32 25 34 25 C34 42.16 34 59.32 34 77 C28.39 77 22.78 77 17 77 C16.67 60.17 16.34 43.34 16 26 C15.01 25.67 14.02 25.34 13 25 C13 23.68 13 22.36 13 21 C12.34 21 11.68 21 11 21 C11 20.34 11 19.68 11 19 C10.01 19 9.02 19 8 19 C8 18.34 8 17.68 8 17 C3.05 17 -1.9 17 -7 17 C-7 17.66 -7 18.32 -7 19 C-8.32 19 -9.64 19 -11 19 C-11 19.66 -11 20.32 -11 21 C-11.66 21 -12.32 21 -13 21 C-13 21.66 -13 22.32 -13 23 C-13.66 23 -14.32 23 -15 23 C-15 24.32 -15 25.64 -15 27 C-15.66 27 -16.32 27 -17 27 C-17 43.5 -17 60 -17 77 C-22.61 77 -28.22 77 -34 77 C-34 69.08 -34 61.16 -34 53 C-33.34 53 -32.68 53 -32 53 C-32 36.17 -32 19.34 -32 2 C-27.05 2 -22.1 2 -17 2 C-17 3.98 -17 5.96 -17 8 C-16.34 8 -15.68 8 -15 8 C-15 7.34 -15 6.68 -15 6 C-13.02 6 -11.04 6 -9 6 C-9 5.34 -9 4.68 -9 4 C-8.01 4 -7.02 4 -6 4 C-6 3.34 -6 2.68 -6 2 C-4.02 2 -2.04 2 0 2 C0 1.34 0 0.68 0 0 Z " fill="#DCDDDD" transform="translate(782,251)"/>
<path d="M0 0 C4.95 0 9.9 0 15 0 C15 0.66 15 1.32 15 2 C17.31 2 19.62 2 22 2 C22 2.66 22 3.32 22 4 C23.32 4 24.64 4 26 4 C26 4.66 26 5.32 26 6 C26.66 6 27.32 6 28 6 C28 6.66 28 7.32 28 8 C28.66 8 29.32 8 30 8 C30 8.66 30 9.32 30 10 C30.66 10 31.32 10 32 10 C32 10.99 32 11.98 32 13 C32.66 13 33.32 13 34 13 C34.495 15.97 34.495 15.97 35 19 C35.66 19 36.32 19 37 19 C37 20.32 37 21.64 37 23 C37.66 23 38.32 23 39 23 C39 24.32 39 25.64 39 27 C32.73 27 26.46 27 20 27 C20 26.34 20 25.68 20 25 C19.34 25 18.68 25 18 25 C17.505 22.03 17.505 22.03 17 19 C15.68 19 14.36 19 13 19 C13 18.34 13 17.68 13 17 C8.05 17 3.1 17 -2 17 C-2 17.66 -2 18.32 -2 19 C-3.32 19 -4.64 19 -6 19 C-6 19.66 -6 20.32 -6 21 C-6.66 21 -7.32 21 -8 21 C-8 22.32 -8 23.64 -8 25 C-8.66 25 -9.32 25 -10 25 C-10 26.98 -10 28.96 -10 31 C-10.66 31 -11.32 31 -12 31 C-12 36.94 -12 42.88 -12 49 C-11.34 49 -10.68 49 -10 49 C-10 50.32 -10 51.64 -10 53 C-9.34 53 -8.68 53 -8 53 C-8 54.32 -8 55.64 -8 57 C-7.34 57 -6.68 57 -6 57 C-6 57.66 -6 58.32 -6 59 C-5.34 59 -4.68 59 -4 59 C-4 59.66 -4 60.32 -4 61 C-2.68 61 -1.36 61 0 61 C0 61.66 0 62.32 0 63 C4.29 63 8.58 63 13 63 C13 62.34 13 61.68 13 61 C13.66 61 14.32 61 15 61 C15 60.34 15 59.68 15 59 C15.99 59 16.98 59 18 59 C18 57.68 18 56.36 18 55 C18.66 55 19.32 55 20 55 C20 54.34 20 53.68 20 53 C25.61 53 31.22 53 37 53 C37 54.98 37 56.96 37 59 C36.34 59 35.68 59 35 59 C34.67 60.98 34.34 62.96 34 65 C33.34 65 32.68 65 32 65 C32 65.66 32 66.32 32 67 C31.34 67 30.68 67 30 67 C30 67.66 30 68.32 30 69 C29.34 69 28.68 69 28 69 C28 69.66 28 70.32 28 71 C27.34 71 26.68 71 26 71 C26 71.66 26 72.32 26 73 C24.68 73 23.36 73 22 73 C22 73.66 22 74.32 22 75 C20.68 75 19.36 75 18 75 C18 75.66 18 76.32 18 77 C16.35 77 14.7 77 13 77 C13 77.66 13 78.32 13 79 C8.05 79 3.1 79 -2 79 C-2 78.34 -2 77.68 -2 77 C-3.98 77 -5.96 77 -8 77 C-8 76.34 -8 75.68 -8 75 C-9.32 75 -10.64 75 -12 75 C-12 74.34 -12 73.68 -12 73 C-12.99 73 -13.98 73 -15 73 C-15 72.34 -15 71.68 -15 71 C-15.66 71 -16.32 71 -17 71 C-17 69.68 -17 68.36 -17 67 C-18.32 67 -19.64 67 -21 67 C-21 65.68 -21 64.36 -21 63 C-22.32 63 -23.64 63 -25 63 C-25 61.68 -25 60.36 -25 59 C-25.66 59 -26.32 59 -27 59 C-27 55.7 -27 52.4 -27 49 C-27.66 49 -28.32 49 -29 49 C-29 44.38 -29 39.76 -29 35 C-28.34 35 -27.68 35 -27 35 C-27 31.04 -27 27.08 -27 23 C-26.34 23 -25.68 23 -25 23 C-25 21.02 -25 19.04 -25 17 C-23.68 17 -22.36 17 -21 17 C-21 15.68 -21 14.36 -21 13 C-20.34 13 -19.68 13 -19 13 C-19 12.01 -19 11.02 -19 10 C-18.34 10 -17.68 10 -17 10 C-17 9.34 -17 8.68 -17 8 C-16.34 8 -15.68 8 -15 8 C-15 7.34 -15 6.68 -15 6 C-14.01 6 -13.02 6 -12 6 C-12 5.34 -12 4.68 -12 4 C-10.68 4 -9.36 4 -8 4 C-8 3.34 -8 2.68 -8 2 C-5.36 2 -2.72 2 0 2 C0 1.34 0 0.68 0 0 Z " fill="#DCDDDD" transform="translate(867,251)"/>
<path d="M0 0 C3.3 0 6.6 0 10 0 C10 0.66 10 1.32 10 2 C19.24 2 28.48 2 38 2 C38 1.34 38 0.68 38 0 C40.97 0 43.94 0 47 0 C47 0.66 47 1.32 47 2 C47.66 2 48.32 2 49 2 C49 6.62 49 11.24 49 16 C36.79 16 24.58 16 12 16 C12 24.25 12 32.5 12 41 C12.99 41 13.98 41 15 41 C15 41.66 15 42.32 15 43 C23.25 43 31.5 43 40 43 C40 47.62 40 52.24 40 57 C30.76 57 21.52 57 12 57 C12 70.2 12 83.4 12 97 C6.39 97 0.78 97 -5 97 C-5 65.65 -5 34.3 -5 2 C-3.35 2 -1.7 2 0 2 C0 1.34 0 0.68 0 0 Z " fill="#DCDDDD" transform="translate(291,231)"/>
<path d="M0 0 C2.31 0 4.62 0 7 0 C7 0.66 7 1.32 7 2 C20.86 2 34.72 2 49 2 C49 6.62 49 11.24 49 16 C36.46 16 23.92 16 11 16 C11 24.25 11 32.5 11 41 C11.66 41 12.32 41 13 41 C13 41.66 13 42.32 13 43 C21.58 43 30.16 43 39 43 C39 47.62 39 52.24 39 57 C29.76 57 20.52 57 11 57 C11 70.2 11 83.4 11 97 C5.39 97 -0.22 97 -6 97 C-6.04513924 85.05650487 -6.08185175 73.11306616 -6.10362434 61.16950512 C-6.11407275 55.62395757 -6.12825123 50.07847128 -6.15087891 44.53295898 C-6.17256958 39.18375863 -6.18456066 33.83461729 -6.18975449 28.48537636 C-6.19345703 26.44197981 -6.20068694 24.39858658 -6.21146011 22.35521507 C-6.22592482 19.49870128 -6.22798005 16.64243305 -6.22705078 13.78588867 C-6.23424133 12.93640656 -6.24143188 12.08692444 -6.24884033 11.21170044 C-6.23498277 7.28917171 -6.22583824 5.33875736 -4 2 C-2.68 2 -1.36 2 0 2 C0 1.34 0 0.68 0 0 Z " fill="#DCDDDD" transform="translate(1023,231)"/>
<path d="M0 0 C0.99 0 1.98 0 3 0 C3 1.32 3 2.64 3 4 C4.32 4 5.64 4 7 4 C7 5.32 7 6.64 7 8 C8.32 8 9.64 8 11 8 C11 10.97 11 13.94 11 17 C11.66 17 12.32 17 13 17 C13 18.32 13 19.64 13 21 C13.66 21 14.32 21 15 21 C15 21.66 15 22.32 15 23 C15.66 23 16.32 23 17 23 C17.495 25.97 17.495 25.97 18 29 C18.66 29 19.32 29 20 29 C20 30.32 20 31.64 20 33 C20.66 33 21.32 33 22 33 C22 34.98 22 36.96 22 39 C23.32 39 24.64 39 26 39 C26 40.98 26 42.96 26 45 C26.66 45 27.32 45 28 45 C28 46.32 28 47.64 28 49 C28.66 49 29.32 49 30 49 C30 49.66 30 50.32 30 51 C30.66 51 31.32 51 32 51 C32 52.32 32 53.64 32 55 C32.66 55 33.32 55 34 55 C34 56.32 34 57.64 34 59 C13.21 59 -7.58 59 -29 59 C-29 57.02 -29 55.04 -29 53 C-28.34 53 -27.68 53 -27 53 C-27 51.68 -27 50.36 -27 49 C-26.34 49 -25.68 49 -25 49 C-25 48.34 -25 47.68 -25 47 C-24.34 47 -23.68 47 -23 47 C-23 45.68 -23 44.36 -23 43 C-22.34 43 -21.68 43 -21 43 C-21 41.68 -21 40.36 -21 39 C-20.34 39 -19.68 39 -19 39 C-19 38.34 -19 37.68 -19 37 C-18.34 37 -17.68 37 -17 37 C-17 35.68 -17 34.36 -17 33 C-16.34 33 -15.68 33 -15 33 C-15 31.68 -15 30.36 -15 29 C-14.34 29 -13.68 29 -13 29 C-12.67 26.36 -12.34 23.72 -12 21 C-11.34 21 -10.68 21 -10 21 C-10 20.34 -10 19.68 -10 19 C-9.34 19 -8.68 19 -8 19 C-8 17.68 -8 16.36 -8 15 C-7.34 15 -6.68 15 -6 15 C-6 13.68 -6 12.36 -6 11 C-5.34 11 -4.68 11 -4 11 C-4 9.35 -4 7.7 -4 6 C-3.34 6 -2.68 6 -2 6 C-2 5.34 -2 4.68 -2 4 C-1.34 4 -0.68 4 0 4 C0 2.68 0 1.36 0 0 Z " fill="#FEFEFE" transform="translate(679,253)"/>
<path d="M0 0 C2.97 0 5.94 0 9 0 C9 0.66 9 1.32 9 2 C9.66 2 10.32 2 11 2 C11 35.33 11 68.66 11 103 C5.39 103 -0.22 103 -6 103 C-6.023121 89.9788936 -6.04091384 76.95779205 -6.05181217 63.93666935 C-6.05704153 57.89112183 -6.06414014 51.8455883 -6.07543945 45.80004883 C-6.08626645 39.97105712 -6.09227643 34.14207891 -6.09487724 28.31307793 C-6.09673183 26.0838239 -6.10035308 23.85457065 -6.10573006 21.62532234 C-6.11293799 18.51460266 -6.11399105 15.40393951 -6.11352539 12.29321289 C-6.11712067 11.36173431 -6.12071594 10.43025574 -6.12442017 9.47055054 C-6.11405216 3.11405216 -6.11405216 3.11405216 -5 2 C-3.33382885 1.95936168 -1.66611905 1.957279 0 2 C0 1.34 0 0.68 0 0 Z " fill="#DDDEDE" transform="translate(1096,225)"/>
<path d="M0 0 C1.65 0 3.3 0 5 0 C5 0.66 5 1.32 5 2 C6.32 2 7.64 2 9 2 C9 4.64 9 7.28 9 10 C9.66 10 10.32 10 11 10 C11 9.34 11 8.68 11 8 C11.66 8 12.32 8 13 8 C13 7.34 13 6.68 13 6 C14.32 6 15.64 6 17 6 C17 5.34 17 4.68 17 4 C17.99 4 18.98 4 20 4 C20 3.34 20 2.68 20 2 C23.96 2 27.92 2 32 2 C32 8.27 32 14.54 32 21 C27.05 21 22.1 21 17 21 C17 21.66 17 22.32 17 23 C15.68 23 14.36 23 13 23 C13 24.32 13 25.64 13 27 C12.34 27 11.68 27 11 27 C11 27.66 11 28.32 11 29 C10.34 29 9.68 29 9 29 C9 44.84 9 60.68 9 77 C3.39 77 -2.22 77 -8 77 C-8.33 60.83 -8.66 44.66 -9 28 C-9.33 28 -9.66 28 -10 28 C-10 26.35 -10 24.7 -10 23 C-9.34 23 -8.68 23 -8 23 C-8 16.07 -8 9.14 -8 2 C-5.36 2 -2.72 2 0 2 C0 1.34 0 0.68 0 0 Z " fill="#DBDCDC" transform="translate(367,251)"/>
<path d="M0 0 C4.95 0 9.9 0 15 0 C15 33.99 15 67.98 15 103 C10.05 103 5.1 103 0 103 C0 69.01 0 35.02 0 0 Z " fill="#DADBDB" transform="translate(598,225)"/>
<path d="M0 0 C4.95 0 9.9 0 15 0 C15 0.66 15 1.32 15 2 C16.32 2 17.64 2 19 2 C19 2.66 19 3.32 19 4 C20.32 4 21.64 4 23 4 C23 4.66 23 5.32 23 6 C23.66 6 24.32 6 25 6 C25 7.32 25 8.64 25 10 C26.32 10 27.64 10 29 10 C29.1967332 12.8329581 29.38259641 15.66596323 29.5625 18.5 C29.64661133 19.68722656 29.64661133 19.68722656 29.73242188 20.8984375 C30.05189484 26.09519779 29.79686914 30.85281562 29 36 C27.68 36 26.36 36 25 36 C25 37.32 25 38.64 25 40 C23.68 40 22.36 40 21 40 C21 40.66 21 41.32 21 42 C20.34 42 19.68 42 19 42 C19 42.66 19 43.32 19 44 C17.68 44 16.36 44 15 44 C15 44.66 15 45.32 15 46 C12.03 46 9.06 46 6 46 C6 45.34 6 44.68 6 44 C4.02 44 2.04 44 0 44 C0 43.34 0 42.68 0 42 C-0.99 42 -1.98 42 -3 42 C-3 41.34 -3 40.68 -3 40 C-3.66 40 -4.32 40 -5 40 C-5 38.68 -5 37.36 -5 36 C-5.66 36 -6.32 36 -7 36 C-7 35.34 -7 34.68 -7 34 C-7.66 34 -8.32 34 -9 34 C-9 26.08 -9 18.16 -9 10 C-8.34 10 -7.68 10 -7 10 C-7 9.34 -7 8.68 -7 8 C-6.34 8 -5.68 8 -5 8 C-5 7.34 -5 6.68 -5 6 C-4.34 6 -3.68 6 -3 6 C-2.67 4.68 -2.34 3.36 -2 2 C-1.34 2 -0.68 2 0 2 C0 1.34 0 0.68 0 0 Z " fill="#FDFEFE" transform="translate(1154,268)"/>
<path d="M0 0 C2.97 0 5.94 0 9 0 C9 0.66 9 1.32 9 2 C10.32 2 11.64 2 13 2 C13 2.66 13 3.32 13 4 C14.32 4 15.64 4 17 4 C17 4.66 17 5.32 17 6 C17.66 6 18.32 6 19 6 C19 7.98 19 9.96 19 12 C19.99 12 20.98 12 22 12 C22 13.32 22 14.64 22 16 C21.01 16 20.02 16 19 16 C19 16.66 19 17.32 19 18 C9.1 18 -0.8 18 -11 18 C-11 17.34 -11 16.68 -11 16 C-11.66 16 -12.32 16 -13 16 C-13 14.02 -13 12.04 -13 10 C-12.34 10 -11.68 10 -11 10 C-10.67 8.02 -10.34 6.04 -10 4 C-8.68 4 -7.36 4 -6 4 C-6 3.34 -6 2.68 -6 2 C-4.02 2 -2.04 2 0 2 C0 1.34 0 0.68 0 0 Z " fill="#FDFDFD" transform="translate(959,266)"/>
<path d="M0 0 C2.97 0 5.94 0 9 0 C9 0.66 9 1.32 9 2 C10.98 2 12.96 2 15 2 C15 2.66 15 3.32 15 4 C15.99 4 16.98 4 18 4 C18 4.66 18 5.32 18 6 C18.66 6 19.32 6 20 6 C20 6.66 20 7.32 20 8 C20.66 8 21.32 8 22 8 C22 9.98 22 11.96 22 14 C22.66 14 23.32 14 24 14 C24 14.66 24 15.32 24 16 C23.34 16 22.68 16 22 16 C22 16.66 22 17.32 22 18 C10.78 18 -0.44 18 -12 18 C-12 16.68 -12 15.36 -12 14 C-11.34 14 -10.68 14 -10 14 C-10 12.02 -10 10.04 -10 8 C-9.34 8 -8.68 8 -8 8 C-8 7.34 -8 6.68 -8 6 C-7.34 6 -6.68 6 -6 6 C-6 5.34 -6 4.68 -6 4 C-5.34 4 -4.68 4 -4 4 C-4 3.34 -4 2.68 -4 2 C-2.68 2 -1.36 2 0 2 C0 1.34 0 0.68 0 0 Z " fill="#FDFDFD" transform="translate(446,266)"/>
<path d="M0 0 C2.31 0 4.62 0 7 0 C7 0.66 7 1.32 7 2 C8.98 2 10.96 2 13 2 C13 2.66 13 3.32 13 4 C14.32 4 15.64 4 17 4 C17 5.32 17 6.64 17 8 C17.99 8 18.98 8 20 8 C20 9.98 20 11.96 20 14 C20.66 14 21.32 14 22 14 C22 14.66 22 15.32 22 16 C21.34 16 20.68 16 20 16 C20 16.66 20 17.32 20 18 C9.11 18 -1.78 18 -13 18 C-13 10 -13 10 -12 8 C-11.34 8 -10.68 8 -10 8 C-10 6.68 -10 5.36 -10 4 C-8.68 4 -7.36 4 -6 4 C-6 3.34 -6 2.68 -6 2 C-4.02 2 -2.04 2 0 2 C0 1.34 0 0.68 0 0 Z " fill="#FDFEFE" transform="translate(538,266)"/>
<path d="M0 0 C4.95 0 9.9 0 15 0 C15 33.99 15 67.98 15 103 C14.34 103 13.68 103 13 103 C13 69.67 13 36.34 13 2 C8.71 2 4.42 2 0 2 C0 1.34 0 0.68 0 0 Z " fill="#E2E3E3" transform="translate(598,225)"/>
<path d="M0 0 C0.66 0 1.32 0 2 0 C2 24.75 2 49.5 2 75 C1.34 75 0.68 75 0 75 C-0.33 58.83 -0.66 42.66 -1 26 C-1.33 26 -1.66 26 -2 26 C-2 24.35 -2 22.7 -2 21 C-1.34 21 -0.68 21 0 21 C0 14.07 0 7.14 0 0 Z " fill="#EBECEC" transform="translate(359,253)"/>
<path d="M0 0 C0.66 0 1.32 0 2 0 C2 4.62 2 9.24 2 14 C-10.21 14 -22.42 14 -35 14 C-35 22.25 -35 30.5 -35 39 C-35.66 39 -36.32 39 -37 39 C-37.02886537 34.68751391 -37.04675255 30.37505238 -37.0625 26.0625 C-37.07087891 24.83080078 -37.07925781 23.59910156 -37.08789062 22.33007812 C-37.09111328 21.16025391 -37.09433594 19.99042969 -37.09765625 18.78515625 C-37.10289307 17.70113525 -37.10812988 16.61711426 -37.11352539 15.50024414 C-37 13 -37 13 -36 12 C-33.3337397 11.91144839 -30.69352886 11.88475327 -28.02734375 11.90234375 C-27.22970108 11.9037587 -26.43205841 11.90517365 -25.61024475 11.90663147 C-23.05262565 11.91224684 -20.49509282 11.92480188 -17.9375 11.9375 C-16.20768355 11.94251302 -14.47786574 11.94707627 -12.74804688 11.95117188 C-8.49866447 11.96222125 -4.24934688 11.97949614 0 12 C0 8.04 0 4.08 0 0 Z " fill="#E6E7E7" transform="translate(338,233)"/>
<path d="M0 0 C0.66 0 1.32 0 2 0 C2 3.96 2 7.92 2 12 C-15.16 12 -32.32 12 -50 12 C-50.33 12.99 -50.66 13.98 -51 15 C-51.33 15 -51.66 15 -52 15 C-52 13.35 -52 11.7 -52 10 C-34.84 10 -17.68 10 0 10 C0 6.7 0 3.4 0 0 Z " fill="#E2E3E3" transform="translate(575,284)"/>
<path d="M0 0 C0.66 0 1.32 0 2 0 C2 4.62 2 9.24 2 14 C-10.54 14 -23.08 14 -36 14 C-36 13.34 -36 12.68 -36 12 C-24.12 12 -12.24 12 0 12 C0 8.04 0 4.08 0 0 Z " fill="#E7E8E8" transform="translate(1070,233)"/>
<path d="M0 0 C0.66 0 1.32 0 2 0 C2 6.27 2 12.54 2 19 C-1.96 19 -5.92 19 -10 19 C-9.67 18.34 -9.34 17.68 -9 17 C-6.03 17 -3.06 17 0 17 C0 11.39 0 5.78 0 0 Z " fill="#EBECEC" transform="translate(397,253)"/>
<path d="M0 0 C0.66 0 1.32 0 2 0 C2 1.32 2 2.64 2 4 C-4.27 4 -10.54 4 -17 4 C-17 3.34 -17 2.68 -17 2 C-11.39 2 -5.78 2 0 2 C0 1.34 0 0.68 0 0 Z " fill="#E5E6E6" transform="translate(904,274)"/>
<path d="M0 0 C0.66 0 1.32 0 2 0 C2 3.63 2 7.26 2 11 C2.66 11 3.32 11 4 11 C4 13.64 4 16.28 4 19 C3.34 19 2.68 19 2 19 C2 17.02 2 15.04 2 13 C1.34 13 0.68 13 0 13 C0 8.71 0 4.42 0 0 Z " fill="#E9E9E9" transform="translate(1224,253)"/>
<path d="M0 0 C0.66 0 1.32 0 2 0 C2 3.96 2 7.92 2 12 C1.34 12 0.68 12 0 12 C0 16.62 0 21.24 0 26 C-0.33 26 -0.66 26 -1 26 C-1.09744014 17.27369392 -1.16711095 8.66996704 0 0 Z " fill="#EEEFEF" transform="translate(838,274)"/>
<path d="M0 0 C0.66 0 1.32 0 2 0 C2 2.31 2 4.62 2 7 C1.34 7 0.68 7 0 7 C0 8.98 0 10.96 0 13 C-1.32 13 -2.64 13 -4 13 C-4 12.34 -4 11.68 -4 11 C-3.34 11 -2.68 11 -2 11 C-2 9.02 -2 7.04 -2 5 C-1.34 5 -0.68 5 0 5 C0 3.35 0 1.7 0 0 Z " fill="#E8E9E9" transform="translate(662,259)"/>
<path d="M0 0 C1.32 0 2.64 0 4 0 C4 0.66 4 1.32 4 2 C3.34 2 2.68 2 2 2 C2 6.29 2 10.58 2 15 C1.34 15 0.68 15 0 15 C0 10.05 0 5.1 0 0 Z " fill="#E9EAEA" transform="translate(1265,253)"/>
<path d="M0 0 C3.96 0 7.92 0 12 0 C12 1.98 12 3.96 12 6 C11.34 6 10.68 6 10 6 C10 4.68 10 3.36 10 2 C6.7 2 3.4 2 0 2 C0 1.34 0 0.68 0 0 Z " fill="#E6E6E6" transform="translate(983,304)"/>
<path d="M0 0 C0.66 0 1.32 0 2 0 C2 2.64 2 5.28 2 8 C1.34 8 0.68 8 0 8 C0 9.32 0 10.64 0 12 C-1.32 12 -2.64 12 -4 12 C-4 11.34 -4 10.68 -4 10 C-3.34 10 -2.68 10 -2 10 C-2 8.68 -2 7.36 -2 6 C-1.34 6 -0.68 6 0 6 C0 4.02 0 2.04 0 0 Z " fill="#E9EAEA" transform="translate(647,288)"/>
<path d="M0 0 C0.66 0 1.32 0 2 0 C2 2.64 2 5.28 2 8 C1.01 8 0.02 8 -1 8 C-0.67 5.36 -0.34 2.72 0 0 Z " fill="#E6E7E7" transform="translate(509,272)"/>
</svg>
